<svg viewBox="0 0 439.9 512">
    <path d="M8.1,512H32c4.4,0,8-3.6,8-8v-16.2h359.9V504c0,4.4,3.6,8,8,8h24c4.4,0,8-3.6,8-8V20c0-11-9-20-20-20s-20,9-20,20v124h-24
  v-112c0-4.4-3.6-8-8-8H240c-4.4,0-8,3.6-8,8v112h-24v-112c0-4.4-3.6-8-8-8H72c-4.4,0-8,3.6-8,8v112H40V20C40,9,31,0,20,0S0,9,0,20
  l0.1,484C0.1,508.4,3.7,512,8.1,512L8.1,512z M415.9,20c0-2.2,1.8-4,4-4s4,1.8,4,4v476h-8V20z M296,40.1h16v8.1h-16V40.1z M248,40.1
  h32v16.1c0,4.4,3.6,8,8,8h32c4.4,0,8-3.6,8-8V40.1h32v104H248L248,40.1z M128,40.1h16v8.1h-16V40.1z M80,40.1h32v16.1
  c0,4.4,3.6,8,8,8h32c4.4,0,8-3.6,8-8V40.1h32v104H80V40.1z M40,160h32h128h40h128h32v8H40L40,160z M40,184h359.9v111.8h-24v-87.9
  c0-4.4-3.6-8-8-8H72c-4.4,0-8,3.6-8,8v87.9H40V184z M200,239.9h40c4.4,0,8-3.6,8-8v-16h112v79.9H80v-79.9h112v16
  C192,236.3,195.5,239.9,200,239.9z M208,223.9v-8h24v8H208z M40,311.8h32h296h32v8H40L40,311.8z M40,335.8h359.9v112h-24v-95.9
  c0-4.4-3.6-8-8-8H256c-4.4,0-8,3.6-8,8v95.9h-24v-71.9c0-4.4-3.6-8-8-8h-56c0,0,0,0-0.1,0s0,0-0.1,0H128c0,0,0,0-0.1,0s0,0-0.1,0H72
  c-4.4,0-8,3.6-8,8v71.9H40V335.8z M296,384h32c4.4,0,8-3.6,8-8v-16.1h24v87.9h-96v-87.9h24V376C288,380.4,291.5,384,296,384L296,384
  z M304,368v-8.1h16v8.1H304z M128,408h32c4.4,0,8-3.6,8-8v-16h40v63.9H80v-63.9h40v16C120,404.4,123.5,408,128,408L128,408z
   M136,392v-8h16v8H136z M40,463.8h32h144h40h112h32v8H40L40,463.8z M20,16c2.2,0,4,1.8,4,4v476h-7.9L16,20C16,17.8,17.8,16,20,16z" />
</svg>