<?xml version="1.0" encoding="utf-8"?>
<!-- Generator: Adobe Illustrator 21.1.0, SVG Export Plug-In . SVG Version: 6.00 Build 0)  -->
<svg version="1.1" id="Capa_1" xmlns="http://www.w3.org/2000/svg" xmlns:xlink="http://www.w3.org/1999/xlink" x="0px" y="0px"
	 viewBox="0 0 111.5 184" style="enable-background:new 0 0 111.5 184;" xml:space="preserve">
<g>
	<g>
		<path d="M85.8,81.3c9.9-8.5,16.2-21.1,16.2-35.1C102,20.7,81.3,0,55.8,0S9.5,20.7,9.5,46.2c0,14,6.3,26.6,16.2,35.1
			C10.3,91.3,0,108.6,0,128.2C0,159,25,184,55.8,184s55.8-25,55.8-55.8C111.5,108.6,101.3,91.3,85.8,81.3z M55.8,20
			C70.2,20,82,31.8,82,46.2S70.2,72.5,55.8,72.5S29.5,60.7,29.5,46.2S41.3,20,55.8,20z M55.8,164C36,164,20,148,20,128.2
			s16-35.8,35.8-35.8s35.8,16,35.8,35.8S75.5,164,55.8,164z"/>
	</g>
</g>
</svg>
