<svg viewBox="0 0 441.1 512">
    <path d="M270.6,180c5.5,0,10-4.5,10-10s-4.5-10-10-10c-5.5,0-10,4.5-10,10S265,180,270.6,180z" />
    <path d="M170.6,180c5.5,0,10-4.5,10-10s-4.5-10-10-10c-5.5,0-10,4.5-10,10S165,180,170.6,180z" />
    <path d="M193.8,248.7c8.4,4,17.4,6,26.7,6c9.1,0,18-1.9,26.2-5.7c5-2.3,7.2-8.2,4.9-13.3c-2.3-5-8.2-7.2-13.3-4.9
  c-5.6,2.6-11.6,3.9-17.9,3.9c-6.4,0-12.5-1.4-18.2-4.1c-5-2.4-11-0.2-13.3,4.8C186.7,240.4,188.8,246.4,193.8,248.7z" />
    <path d="M441.1,405.8c0-55-62.6-98.1-116.3-100.2L297.4,281c33.4-24.3,53.6-63.4,53.6-105v-66C351,49.3,301.5,0,240.6,0h-40
  C139.9,0,91,49.2,91,110v66c0,41.5,20,80.5,52.9,104.8l-27.6,24.8C62.7,307.7,0,350.7,0,405.8V502c0,5.5,4.5,10,10,10h421.1
  c5.5,0,10-4.5,10-10V405.8z M198.4,446h44.2l10.5,46h-65.5L198.4,446z M243.5,426h-45.7l-7.7-23.9l30.5-15.2l31.1,15.6L243.5,426z
   M220.5,356.8l-34.8-55.6c11.3,3.1,23,4.8,34.9,4.8c11.7,0,23.4-1.6,34.6-4.7L220.5,356.8z M234.9,371.7l48-76.8l25.9,23.3l-32.9,74
  L234.9,371.7z M200.6,20h40c49.8,0,90.4,40.4,90.4,90v8.3l-18.8-27c-1.7-2.4-4.4-4-7.4-4.3c-3-0.3-5.9,0.8-8,3
  C276.5,110.7,253,120,220.6,120c-32.4,0-56-9.3-76.3-30.1c-2.1-2.1-5-3.2-8-3c-3,0.3-5.7,1.8-7.4,4.3L111,117.4V110
  C111,60.4,151.2,20,200.6,20z M111,176v-23.1l27.8-40.7c22.3,18.9,48.5,27.8,81.8,27.8c33.3,0,59.6-8.9,81.8-27.9l28.6,41.2V176
  c0,59.9-48.9,110-110.4,110C159.4,286,111,236,111,176z M158.2,294.8l48,76.8l-41,20.5l-32.9-74L158.2,294.8z M20,405.8
  c0-41.2,50.1-76.8,93.8-80l37.4,84.1c1.1,2.5,3.2,4.4,5.8,5.3s5.4,0.8,7.8-0.5l7.1-3.6l8.1,25.3l-13,55.6H20V405.8z M421.1,492
  H273.6L261,436.6l8.7-25.1l6.5,3.3c2.5,1.2,5.3,1.4,7.8,0.5c2.6-0.9,4.7-2.9,5.8-5.3l37.4-84.1c43.8,3.2,93.8,38.8,93.8,80V492z" />
    <path d="M350.6,446h-40c-5.5,0-10,4.5-10,10s4.5,10,10,10h40c5.5,0,10-4.5,10-10S356.1,446,350.6,446z" />
    <path d="M390,446c5.5,0,10,4.5,10,10s-4.5,10-10,10s-10-4.5-10-10S384.5,446,390,446z" />
</svg>