<svg height="512pt" viewBox="0 0 512 512" width="512pt" xmlns="http://www.w3.org/2000/svg"><path d="m347 0c-85.925781 0-156.707031 66.023438-164.3125 150h-182.6875l30 60.335938-30 60.332031 30 60.332031-30 60.335938 30 60.332031-30 60.332031h347c90.980469 0 165-74.019531 165-165v-182c0-90.980469-74.019531-165-165-165zm-298.578125 482 15.082031-30.332031-30-60.332031 30-60.335938-30-60.332031 30-60.332031-15.082031-30.335938h133.578125v167c0 55.746094 27.792969 105.113281 70.242188 135zm298.578125 0c-74.4375 0-135-60.5625-135-135s60.5625-135 135-135 135 60.5625 135 135-60.5625 135-135 135zm0-300c-55.746094 0-105.113281 27.792969-135 70.242188v-87.242188c0-74.4375 60.5625-135 135-135s135 60.5625 135 135v87.242188c-29.886719-42.449219-79.253906-70.242188-135-70.242188zm0 0"/><path d="m347 242c-57.898438 0-105 47.101562-105 105s47.101562 105 105 105 105-47.101562 105-105-47.101562-105-105-105zm0 180c-41.355469 0-75-33.644531-75-75s33.644531-75 75-75 75 33.644531 75 75-33.644531 75-75 75zm0 0"/><path d="m347 302c-24.8125 0-45 20.1875-45 45s20.1875 45 45 45 45-20.1875 45-45-20.1875-45-45-45zm0 60c-8.269531 0-15-6.730469-15-15s6.730469-15 15-15 15 6.730469 15 15-6.730469 15-15 15zm0 0"/></svg>