<svg viewBox="0 0 512 512">
    <path d="m30 512h181c5.522 0 10-4.477 10-10s-4.478-10-10-10c-32.218 0-161.172 0-181 0-5.514 0-10-4.486-10-10v-326c0-5.514 4.486-10 10-10h36v276c0 16.542 13.458 30 30 30h50c16.542 0 30-13.458 30-30v-276h306c5.514 0 10 4.486 10 10v326c0 5.514-4.486 10-10 10h-181.002c-5.522 0-10 4.477-10 10s4.478 10 10 10h181.002c16.542 0 30-13.458 30-30v-326c0-16.542-13.458-30-30-30h-36v-56c0-2.712-1.121-5.264-2.929-7.071l-60-60c-1.946-1.946-4.555-2.929-7.071-2.929h-150c-5.522 0-10 4.477-10 10v116h-40c0-16.542-13.458-30-30-30v-50c0-5.523-4.478-10-10-10s-10 4.477-10 10v50h-30c-16.542 0-30 13.458-30 30h-36c-16.542 0-30 13.458-30 30v326c0 16.542 13.458 30 30 30zm356-477.857 25.858 25.857h-25.858zm-150-14.143h130v50c0 5.523 4.478 10 10 10h50v46h-190zm-150 106c0-5.514 4.486-10 10-10h50c5.514 0 10 4.486 10 10v296c0 5.514-4.486 10-10 10h-50c-5.514 0-10-4.486-10-10z" />
    <path d="m446 262v-86c0-5.523-4.478-10-10-10h-210c-5.522 0-10 4.477-10 10v86c0 5.523 4.478 10 10 10h210c5.522 0 10-4.477 10-10zm-20-10h-190v-66h190z" />
    <path d="m226 332h30c5.522 0 10-4.477 10-10s-4.478-10-10-10h-30c-5.522 0-10 4.477-10 10s4.478 10 10 10z" />
    <path d="m346 312h-30c-5.522 0-10 4.477-10 10s4.478 10 10 10h30c5.522 0 10-4.477 10-10s-4.478-10-10-10z" />
    <path d="m436 312h-30c-5.522 0-10 4.477-10 10s4.478 10 10 10h30c5.522 0 10-4.477 10-10s-4.478-10-10-10z" />
    <path d="m226 392h30c5.522 0 10-4.477 10-10s-4.478-10-10-10h-30c-5.522 0-10 4.477-10 10s4.478 10 10 10z" />
    <path d="m346 372h-30c-5.522 0-10 4.477-10 10s4.478 10 10 10h30c5.522 0 10-4.477 10-10s-4.478-10-10-10z" />
    <path d="m436 372h-30c-5.522 0-10 4.477-10 10s4.478 10 10 10h30c5.522 0 10-4.477 10-10s-4.478-10-10-10z" />
    <path d="m226 452h30c5.522 0 10-4.477 10-10s-4.478-10-10-10h-30c-5.522 0-10 4.477-10 10s4.478 10 10 10z" />
    <path d="m346 432h-30c-5.522 0-10 4.477-10 10s4.478 10 10 10h30c5.522 0 10-4.477 10-10s-4.478-10-10-10z" />
    <path d="m436 432h-30c-5.522 0-10 4.477-10 10s4.478 10 10 10h30c5.522 0 10-4.477 10-10s-4.478-10-10-10z" />
    <circle cx="256" cy="502" r="10" /></svg>