<?xml version="1.0" encoding="utf-8"?>
<!-- Generator: Adobe Illustrator 21.1.0, SVG Export Plug-In . SVG Version: 6.00 Build 0)  -->
<svg version="1.1" id="Слой_1" xmlns="http://www.w3.org/2000/svg" xmlns:xlink="http://www.w3.org/1999/xlink" x="0px" y="0px"
	 viewBox="0 0 480 480" style="enable-background:new 0 0 480 480;" xml:space="preserve">
<path d="M352,368h-72c-13.2,0-24,10.8-24,24v72H16V80h208V64H16C7.2,64,0,71.2,0,80v384c0,8.8,7.2,16,16,16h241.4
	c6.4,0,12.5-2.5,17-7l86.6-86.6c4.5-4.5,7-10.6,7-17V272h-16V368z M272,452.7V392c0-4.4,3.6-8,8-8h60.7L272,452.7z"/>
<path d="M360,64c-30.9,0-56,25.1-56,56s25.1,56,56,56s56-25.1,56-56C416,89.1,390.9,64,360,64z M360,160c-22.1,0-40-17.9-40-40
	s17.9-40,40-40s40,17.9,40,40C400,142.1,382.1,160,360,160z"/>
<path d="M464,88l-13.6-0.2c-1.1-3.1-2.4-6.2-3.8-9.1l9.6-9.6c6.2-6.2,6.3-16.4,0-22.6c0,0,0,0,0,0l-22.6-22.6
	c-6.3-6.2-16.4-6.2-22.6,0l-9.8,9.5c-3-1.4-6-2.6-9.1-3.7V16c0-8.8-7.2-16-16-16h-32c-8.8,0-16,7.2-16,16l-0.2,13.6
	c-3.1,1.1-6.1,2.4-9.1,3.8l-9.6-9.6c-6.3-6.2-16.4-6.2-22.6,0l-22.6,22.6c-6.2,6.2-6.3,16.4,0,22.6c0,0,0,0,0,0l9.5,9.8
	c-1.4,3-2.7,6-3.7,9.1H256c-8.8,0-16,7.2-16,16v32c0,8.8,7.2,16,16,16l13.6,0.2c1.1,3.1,2.4,6.2,3.8,9.1l-9.6,9.6
	c-6.2,6.3-6.2,16.4,0,22.6l22.6,22.6c6.3,6.2,16.4,6.2,22.6,0l9.8-9.5c3,1.4,6,2.6,9.1,3.7V224c0,8.8,7.2,16,16,16h32
	c8.8,0,16-7.2,16-16l0.2-13.6c3.1-1.1,6.1-2.4,9.1-3.8l9.6,9.6c6.3,6.2,16.4,6.2,22.6,0l22.6-22.6c6.2-6.3,6.2-16.4,0-22.6l-9.5-9.8
	c1.4-3,2.6-6,3.7-9.1H464c8.8,0,16-7.2,16-16v-32C480,95.2,472.8,88,464,88z M464,136h-13.6c-6.8,0.1-12.9,4.4-15.1,10.9
	c-0.9,2.5-1.9,5-3,7.4c-3,6.1-1.8,13.5,3,18.3l9.6,9.6l-22.6,22.6l-9.6-9.6c-4.9-4.8-12.2-6-18.3-3c-2.4,1.1-4.9,2.2-7.4,3.1
	c-6.5,2.2-10.8,8.3-10.9,15.1V224h-32v-13.6c-0.1-6.8-4.4-12.9-10.9-15.1c-2.5-0.9-5-1.9-7.4-3.1c-2.2-1-4.6-1.6-7.1-1.6
	c-4.2,0-8.3,1.6-11.3,4.6l-9.6,9.6l-22.6-22.6l9.6-9.6c4.8-4.9,6-12.2,3-18.3c-1.1-2.4-2.2-4.9-3.1-7.4c-2.2-6.5-8.3-10.8-15.1-10.9
	H256v-32h13.6c6.8-0.1,12.9-4.4,15.1-10.9c0.9-2.5,1.9-5,3.1-7.4c3-6.1,1.7-13.5-3-18.3l-9.6-9.6l22.6-22.6l9.6,9.6
	c4.9,4.8,12.2,6,18.3,3c2.4-1.1,4.9-2.2,7.4-3.1c6.5-2.2,10.8-8.3,10.9-15.1V16h32v13.6c0.1,6.8,4.4,12.9,10.9,15.1
	c2.5,0.9,5,1.9,7.4,3.1c6.1,3,13.5,1.7,18.3-3l9.6-9.6l22.6,22.6l-9.6,9.6c-4.8,4.9-6,12.2-3,18.4c1.1,2.4,2.2,4.9,3.1,7.4
	c2.2,6.5,8.3,10.8,15.1,10.9H464V136z"/>
<path d="M128,104h88v16h-88V104z"/>
<path d="M104,136h64v16h-64V136z"/>
<path d="M184,136h32v16h-32V136z"/>
<path d="M144,200h16v16h-16V200z"/>
<path d="M176,200h64v16h-64V200z"/>
<path d="M128,232h80v16h-80V232z"/>
<path d="M224,232h48v16h-48V232z"/>
<path d="M144,288h16v16h-16V288z"/>
<path d="M176,288h72v16h-72V288z"/>
<path d="M128,320h80v16h-80V320z"/>
<path d="M224,320h56v16h-56V320z"/>
<path d="M144,376h16v16h-16V376z"/>
<path d="M176,376h56v16h-56V376z"/>
<path d="M128,408h64v16h-64V408z"/>
<path d="M208,408h24v16h-24V408z"/>
<path d="M264,288h64v16h-64V288z"/>
<path d="M296,320h32v16h-32V320z"/>
<path d="M114.9,177.9L95.5,194c-2.3-1.3-4.9-2-7.5-2H56c-8.8,0-16,7.2-16,16v32c0,8.8,7.2,16,16,16h32c8.8,0,16-7.2,16-16v-32
	c0-0.1,0-0.2,0-0.2l21.1-17.6L114.9,177.9z M88,240H56v-32h22.7l-11.8,9.9l10.3,12.3l10.9-9.1V240z"/>
<path d="M114.9,265.9L95.5,282c-2.3-1.3-4.9-2-7.5-2H56c-8.8,0-16,7.2-16,16v32c0,8.8,7.2,16,16,16h32c8.8,0,16-7.2,16-16v-32
	c0-0.1,0-0.2,0-0.2l21.1-17.6L114.9,265.9z M88,328H56v-32h22.7l-11.8,9.9l10.3,12.3l10.9-9.1V328z"/>
<path d="M114.9,353.9L95.5,370c-2.3-1.3-4.9-2-7.5-2H56c-8.8,0-16,7.2-16,16v32c0,8.8,7.2,16,16,16h32c8.8,0,16-7.2,16-16v-32
	c0-0.1,0-0.2,0-0.2l21.1-17.6L114.9,353.9z M88,416H56v-32h22.7l-11.8,9.9l10.3,12.3l10.9-9.1V416z"/>
</svg>
