<?xml version="1.0" encoding="utf-8"?>
<!-- Generator: Adobe Illustrator 21.1.0, SVG Export Plug-In . SVG Version: 6.00 Build 0)  -->
<svg version="1.1" id="Слой_1" xmlns="http://www.w3.org/2000/svg" xmlns:xlink="http://www.w3.org/1999/xlink" x="0px" y="0px"
	 viewBox="0 0 512 489" style="enable-background:new 0 0 512 489;" xml:space="preserve">
<path d="M489.1,24.4H267.5V11.5C267.5,5.1,262.3,0,256,0c-6.3,0-11.5,5.1-11.5,11.5v12.9H22.9C10.3,24.4,0,34.7,0,47.3v21.3
	c0,12.6,10.3,22.9,22.9,22.9h3.1v257.8c0,12.6,10.3,22.9,22.9,22.9h195.5v33.7l-85,62.3c-5.1,3.7-6.2,10.9-2.5,16
	c3.7,5.1,10.9,6.2,16,2.5l71.4-52.4v43.1c0,6.3,5.1,11.5,11.5,11.5c6.3,0,11.5-5.1,11.5-11.5v-43.1l71.4,52.4c2,1.5,4.4,2.2,6.8,2.2
	c3.5,0,7-1.6,9.3-4.7c3.7-5.1,2.6-12.3-2.5-16l-85-62.3v-33.7H463c12.6,0,22.9-10.3,22.9-22.9V91.5h3.1c12.6,0,22.9-10.3,22.9-22.9
	V47.3C512,34.7,501.7,24.4,489.1,24.4z M463,349.3H49V91.5h414L463,349.3L463,349.3z M489.1,68.6H22.9V47.3h466.1L489.1,68.6
	L489.1,68.6z"/>
<path d="M255.8,124.8c-5.7,0-10.3,4.6-10.3,10.3v79.2h-79.2c-5.7,0-10.3,4.6-10.3,10.3c0,55,44.8,99.8,99.8,99.8
	s99.8-44.8,99.8-99.8S310.8,124.8,255.8,124.8z M255.8,303.7c-40.2,0-73.4-30-78.5-68.8h78.5c5.7,0,10.3-4.6,10.3-10.3v-78.5
	c38.8,5.1,68.8,38.3,68.8,78.5C334.9,268.2,299.4,303.7,255.8,303.7z"/>
<path d="M220.8,114.1c-41.7,0-75.5,33.9-75.5,75.5c0,5.7,4.6,10.3,10.3,10.3h65.2c5.7,0,10.3-4.6,10.3-10.3v-65.2
	C231.2,118.7,226.5,114.1,220.8,114.1z M210.5,179.3h-43.6c4.2-22,21.6-39.4,43.6-43.6V179.3z"/>
</svg>
