<?xml version="1.0" encoding="utf-8"?>
<!-- Generator: Adobe Illustrator 21.1.0, SVG Export Plug-In . SVG Version: 6.00 Build 0)  -->
<svg version="1.1" id="Слой_1" xmlns="http://www.w3.org/2000/svg" xmlns:xlink="http://www.w3.org/1999/xlink" x="0px" y="0px"
	 viewBox="0 0 480 448" style="enable-background:new 0 0 480 448;" xml:space="preserve">
<path d="M472,384h-8V96c0-17.7-14.3-32-32-32h-72V8c0-4.4-3.6-8-8-8c-0.5,0-1,0-1.5,0.1l-48,9l-8,1.5L223.3,24H176
	c-8.8,0-16,7.2-16,16c-15.9,0-30.3,9.4-36.6,24H48c-17.7,0-32,14.3-32,32v288H8c-4.4,0-8,3.6-8,8v24c0,17.7,14.3,32,32,32h416
	c17.7,0,32-14.3,32-32v-24C480,387.6,476.4,384,472,384z M232,38.6l112-21v124.8l-112-21V38.6z M232,137.6l16,3V152h-16V137.6z
	 M176,40h40v80h-40V40z M192,184v-48h24v48H192z M216,200v12c0,6.6-5.4,12-12,12s-12-5.4-12-12v-12H216z M160,56v48
	c-13.3,0-24-10.7-24-24S146.7,56,160,56z M32,96c0-8.8,7.2-16,16-16h72c0,22.1,17.9,40,40,40c0,8.8,7.2,16,16,16v76
	c0,15.5,12.5,28,28,28s28-12.5,28-28v-44h24c4.4,0,8-3.6,8-8v-16.4l86.5,16.2c0.5,0.1,1,0.1,1.5,0.1c4.4,0,8-3.6,8-8V80h72
	c8.8,0,16,7.2,16,16v288H312c-2.1,0-4.2,0.8-5.7,2.3L292.7,400H187.3l-13.7-13.7c-1.5-1.5-3.5-2.3-5.7-2.3H32V96z M464,416
	c0,8.8-7.2,16-16,16H32c-8.8,0-16-7.2-16-16v-16h148.7l13.7,13.7c1.5,1.5,3.5,2.3,5.7,2.3h112c2.1,0,4.2-0.8,5.7-2.3l13.7-13.7H464
	V416z"/>
<path d="M416,104h-32v16h24v216H72V120h40v-16H64c-4.4,0-8,3.6-8,8v232c0,4.4,3.6,8,8,8h352c4.4,0,8-3.6,8-8V112
	C424,107.6,420.4,104,416,104z"/>
<rect x="232" y="368" width="16" height="16"/>
<rect x="112" y="264" width="16" height="16"/>
<rect x="144" y="264" width="240" height="16"/>
<rect x="96" y="296" width="264" height="16"/>
</svg>
