<svg viewBox="0 0 54 62">
<circle cx="21" cy="23" r="1"/>
<circle cx="33" cy="23" r="1"/>
<path d="M27,33c-1.1,0-2-0.9-2-2h-2c0,2.2,1.8,4,4,4s4-1.8,4-4h-2C29,32.1,28.1,33,27,33z"/>
<path d="M45.8,47.1c2.6-2.1,4-4.5,4.1-4.6l0.5-0.9l-0.9-0.5c-3.4-1.7-5.4-5.1-5.4-8.8l0-16.4c0-4.2-1.7-8.2-4.6-11.2
	c-3-3-7-4.6-11.2-4.6h-0.3c-4,0-7.9,1.6-10.7,4.4l-1.7,1.7c-3.3,1.4-5.4,4.6-5.4,8.2v17.9c0,3.8-2.1,7.1-5.4,8.8l-0.9,0.5l0.5,0.9
	c0.1,0.1,1.5,2.5,4.1,4.6C3.2,49.9,0,55.1,0,61v1h54v-1C54,55.1,50.8,49.9,45.8,47.1z M27.9,2h0.3c3.7,0,7.2,1.4,9.8,4.1
	c2.6,2.6,4.1,6.1,4.1,9.8l0,16.4c0,4.1,2.1,7.9,5.6,10c-0.7,1-2,2.5-3.8,3.8l-9.9-4c-1.1-0.5-1.9-1.6-1.9-2.8v-0.7
	c4.9-3.4,8-9,8-15.2v-6.3l-11.5-1.1C23.4,15.4,19,12,17.2,7.3l1.4-1.4C21,3.4,24.3,2,27.9,2z M35,45c0,1.7-1.6,3-3.5,3
	c-1.2,0-2.2-0.5-2.8-1.3c1.6-0.5,3-1.6,3.7-3.2c0.2,0.1,0.5,0.3,0.7,0.4l1.8,0.8C35,44.8,35,44.9,35,45z M19,44.7l1.9-0.8
	c0.3-0.1,0.5-0.2,0.7-0.4c0.7,1.5,2.1,2.7,3.7,3.2c-0.6,0.8-1.7,1.3-2.8,1.3c-1.9,0-3.5-1.3-3.5-3C19,44.9,19,44.8,19,44.7z
	 M27,38.9c-6.6-2.3-11-8.6-11-15.6v-2.1c0-1.7,0.9-3.3,2.3-4.2l2.8-1.8c2.1,1.4,4.6,2.4,7.2,2.6l9.7,1v4.4
	C38,30.4,33.6,36.6,27,38.9z M26.7,40.9l0.3,0.1l0.3-0.1c0.9-0.3,1.9-0.7,2.7-1.2c0.1,0.8,0.4,1.6,0.8,2.3c-0.5,1.7-2,2.9-3.8,2.9
	c-1.8,0-3.4-1.2-3.8-2.9c0.4-0.7,0.7-1.5,0.8-2.3C24.8,40.2,25.7,40.6,26.7,40.9z M27,47.9c0.3,0.4,0.6,0.7,1,1L29.8,60h-5.6
	L26,48.8C26.4,48.5,26.7,48.2,27,47.9z M6.4,42.3c3.5-2.2,5.6-5.9,5.6-10.1V14.4c0-2.5,1.3-4.8,3.5-6c0.9,2.2,2.3,4.1,4,5.6
	l-2.2,1.4c-2,1.3-3.2,3.5-3.2,5.9v2.1c0,6.2,3.1,11.8,8,15.2v0.7c0,1.2-0.7,2.3-1.9,2.8l-9.9,4C8.4,44.9,7.1,43.3,6.4,42.3z
	 M10.6,48.1l6.4-2.6c0.3,2.5,2.6,4.5,5.5,4.5c0.5,0,0.9-0.1,1.3-0.2L22.2,60H12v-6h-2v6H2C2.4,54.7,5.7,50.2,10.6,48.1z M44,60v-6
	h-2v6H31.8l-1.7-10.2c0.4,0.1,0.9,0.2,1.3,0.2c2.8,0,5.2-2,5.5-4.5l6.4,2.6c4.9,2,8.2,6.6,8.6,11.9H44z"/>
<path d="M37.8,15.2l2-0.3c-0.1-0.7-0.3-1.5-0.6-2.2l-1.9,0.7C37.6,13.9,37.7,14.5,37.8,15.2z"/>
<path d="M36.5,11.5l1.7-1C35.9,6.5,31.6,4,27,4v2C30.9,6,34.6,8.1,36.5,11.5z"/>
</svg>
